<svg width="179" height="46" viewBox="0 0 179 46" fill="none" xmlns="http://www.w3.org/2000/svg">
<path opacity="0.67" fill-rule="evenodd" clip-rule="evenodd" d="M41.3665 40.6157L34.7002 20.3201H34.6849L45.4385 12.5339L23.9925 12.5748L23.9876 12.59L19.8734 0L13.2843 20.3201L13.2984 20.3304L0 20.3372L17.3752 32.8545L17.3881 32.8448L13.2843 45.4385L30.6099 32.8545L30.6044 32.8381L41.3665 40.6157Z" fill="#513DFD"/>
<path fill-rule="evenodd" clip-rule="evenodd" d="M19.909 25.108L13.2984 20.3304L0 20.3371L17.3752 32.8545L17.3881 32.8447L19.909 25.108Z" fill="#EA4435"/>
<path opacity="0.67" fill-rule="evenodd" clip-rule="evenodd" d="M41.3665 40.6158L34.7002 20.3201H34.6848L26.5147 20.3244L21.4668 20.3262L13.2984 20.3305L19.909 25.108L23.995 28.0605L30.6043 32.8381L41.3665 40.6158Z" fill="#513DFD"/>
<path opacity="0.67" fill-rule="evenodd" clip-rule="evenodd" d="M13.2843 45.4385L30.6099 32.8545L30.6044 32.8381L28.0773 25.105L26.5147 20.3243L23.9876 12.59L21.4668 20.3262L19.909 25.108L17.3881 32.8448L13.2843 45.4385Z" fill="#17ACE9"/>
<path opacity="0.67" fill-rule="evenodd" clip-rule="evenodd" d="M30.6044 32.8381L28.0773 25.105L26.5147 20.3243L23.9876 12.59L19.8734 0L13.2843 20.3201L13.2984 20.3304L19.909 25.108L23.995 28.0605L30.6044 32.8381Z" fill="#C22AFF"/>
<path opacity="0.67" fill-rule="evenodd" clip-rule="evenodd" d="M28.0773 25.105L34.6848 20.3201L45.4384 12.5339L23.9925 12.5748L23.9876 12.5901L21.4667 20.3262L19.9089 25.1081L17.3881 32.8448L23.995 28.0606L28.0773 25.105Z" fill="#9230FB"/>
<path fill-rule="evenodd" clip-rule="evenodd" d="M19.909 25.1081L21.4668 20.3262L13.2984 20.3305L19.909 25.1081Z" fill="white"/>
<path fill-rule="evenodd" clip-rule="evenodd" d="M21.4668 20.3262L23.9876 12.59L19.8734 0L13.2843 20.3201L13.2984 20.3304L21.4668 20.3262Z" fill="#FFBC30"/>
<path fill-rule="evenodd" clip-rule="evenodd" d="M26.5147 20.3243L23.9876 12.59L21.4668 20.3262L26.5147 20.3243Z" fill="white"/>
<path fill-rule="evenodd" clip-rule="evenodd" d="M28.0773 25.105L26.5146 20.3244L21.4667 20.3262L19.9089 25.108L23.995 28.0605L28.0773 25.105Z" fill="white"/>
<path fill-rule="evenodd" clip-rule="evenodd" d="M23.995 28.0605L19.9089 25.1081L17.3881 32.8448L23.995 28.0605Z" fill="white"/>
<path fill-rule="evenodd" clip-rule="evenodd" d="M30.6043 32.8381L28.0773 25.105L23.995 28.0605L30.6043 32.8381Z" fill="white"/>
<path fill-rule="evenodd" clip-rule="evenodd" d="M30.6044 32.8381L23.995 28.0605L17.3881 32.8448L13.2843 45.4384L30.6099 32.8545L30.6044 32.8381Z" fill="#3F85F4"/>
<path fill-rule="evenodd" clip-rule="evenodd" d="M41.3665 40.6158L34.7002 20.3201H34.6848L28.0773 25.105L30.6043 32.8381L41.3665 40.6158Z" fill="#32A952"/>
<path fill-rule="evenodd" clip-rule="evenodd" d="M34.6849 20.3201L26.5146 20.3244L28.0773 25.105L34.6849 20.3201Z" fill="white"/>
<path fill-rule="evenodd" clip-rule="evenodd" d="M45.4385 12.5339L23.9926 12.5748L23.9877 12.5901L26.5147 20.3244L34.6849 20.3201L45.4385 12.5339Z" fill="#EA4435"/>
<g clip-path="url(#clip0_210_16)">
<path d="M56.4386 27.5153L59.9623 25.5085C60.2218 26.2603 60.741 26.9093 61.4373 27.3527C62.1336 27.7962 62.9673 28.0087 63.8066 27.9567C65.7714 27.9567 66.2413 27.2343 66.2413 26.5922C66.2413 25.5487 65.2162 25.1473 62.5252 24.445C59.8343 23.7426 57.2501 22.4383 57.2501 19.3078C57.2712 18.595 57.4457 17.8937 57.7632 17.246C58.0807 16.5984 58.5346 16.018 59.0975 15.5398C59.6604 15.0615 60.3206 14.6955 61.0382 14.4636C61.7558 14.2317 62.5158 14.1388 63.2727 14.1906C64.6443 14.1459 65.9993 14.4842 67.1663 15.1628C68.3333 15.8415 69.2599 16.83 69.8292 18.0034L66.3693 19.8897C66.1561 19.2841 65.7384 18.7604 65.1795 18.3982C64.6206 18.036 63.951 17.8551 63.2727 17.883C61.9913 17.883 61.3505 18.485 61.3505 19.1673C61.3505 19.8496 61.799 20.4516 64.5754 21.174C67.3518 21.8964 70.342 22.8396 70.342 26.3915C70.342 29.9434 67.5867 31.5688 63.6783 31.5688C62.1673 31.7196 60.6453 31.406 59.34 30.6752C58.0346 29.9444 57.0166 28.8356 56.4386 27.5153Z" fill="black"/>
<path d="M79.077 28.4384C79.5299 28.4505 79.9807 28.3769 80.4027 28.2217C80.8246 28.0666 81.2092 27.8332 81.5331 27.5354L84.6084 29.201C83.9749 30.0195 83.132 30.6747 82.1577 31.1061C81.1834 31.5375 80.1093 31.7312 79.0342 31.6693C78.1135 31.7338 77.1884 31.6168 76.3187 31.3255C75.449 31.0343 74.6539 30.5753 73.9841 29.9782C73.3144 29.381 72.7848 28.6587 72.4298 27.8579C72.0747 27.0571 71.902 26.1953 71.9225 25.328C71.8954 24.4806 72.0541 23.637 72.3889 22.8497C72.7236 22.0624 73.2271 21.3483 73.8681 20.7516C74.5091 20.155 75.2738 19.6886 76.1149 19.3816C76.9559 19.0745 77.855 18.9332 78.7566 18.9667C79.6294 18.9653 80.4933 19.1316 81.2953 19.4553C82.0973 19.7789 82.8204 20.2531 83.4203 20.8488C84.0203 21.4445 84.4846 22.1491 84.7843 22.9193C85.0841 23.6895 85.2131 24.5092 85.1637 25.328C85.17 25.8067 85.1199 26.2845 85.0143 26.7528H75.9162C76.1604 27.3297 76.6065 27.811 77.1811 28.1175C77.7558 28.424 78.4246 28.5372 79.077 28.4384ZM81.4262 24.0638C81.2823 23.4983 80.9323 22.9981 80.4368 22.6498C79.9414 22.3016 79.3317 22.1273 78.7138 22.1573C78.0844 22.1085 77.4574 22.2743 76.9475 22.6244C76.4377 22.9745 76.0792 23.4855 75.9376 24.0638H81.4262Z" fill="black"/>
<path d="M87.4275 13.7692H91.2716V31.3281H87.4275V13.7692Z" fill="black"/>
<path d="M103.915 27.716C103.915 30.4853 101.352 31.7294 98.5758 31.7294C97.4595 31.8277 96.3376 31.6061 95.3579 31.0939C94.3782 30.5817 93.5865 29.8029 93.0869 28.8598L96.3973 27.0939C96.5383 27.5168 96.8241 27.8838 97.2105 28.1379C97.5968 28.392 98.0619 28.5188 98.533 28.4986C99.4727 28.4986 99.9213 28.2377 99.9213 27.7561C99.9213 26.4317 93.5142 27.134 93.5142 22.9801C93.5142 20.3513 95.8634 18.9666 98.533 18.9666C99.5345 18.9351 100.527 19.1568 101.406 19.6087C102.285 20.0605 103.019 20.7259 103.53 21.5352L100.263 23.2009C100.117 22.8841 99.875 22.6145 99.5675 22.4255C99.2601 22.2365 98.9005 22.1363 98.533 22.1373C97.871 22.1373 97.4652 22.3781 97.4652 22.8196C97.6147 24.1841 103.915 23.2811 103.915 27.716Z" fill="black"/>
<path d="M110.322 22.7594V27.0337C110.322 28.0571 111.262 28.1574 112.97 28.0571V31.3281C107.951 31.8097 106.563 30.405 106.563 27.0337V22.7594H104.428V19.3078H106.563V17.0201L110.407 15.9365V19.3078H112.928V22.7594H110.322Z" fill="black"/>
<path d="M128.027 19.3078V31.3482H124.183V30.2244C123.707 30.7209 123.117 31.1103 122.459 31.3639C121.801 31.6175 121.091 31.7287 120.381 31.6893C119.534 31.6559 118.702 31.4649 117.934 31.1272C117.166 30.7894 116.476 30.3118 115.906 29.7219C115.336 29.1321 114.897 28.4417 114.612 27.6909C114.328 26.9401 114.206 26.1438 114.252 25.3481C114.203 24.5508 114.323 23.7523 114.606 22.9992C114.889 22.246 115.328 21.5532 115.899 20.9612C116.469 20.3692 117.159 19.8897 117.929 19.5507C118.698 19.2117 119.532 19.02 120.381 18.9867C121.091 18.9474 121.801 19.0586 122.459 19.3122C123.117 19.5658 123.707 19.9552 124.183 20.4517V19.3279L128.027 19.3078ZM124.183 25.328C124.21 24.9408 124.15 24.5526 124.007 24.1885C123.865 23.8244 123.642 23.4925 123.354 23.2144C123.066 22.9362 122.72 22.7181 122.336 22.574C121.953 22.43 121.541 22.3632 121.129 22.3781C120.717 22.3629 120.306 22.4297 119.924 22.5739C119.541 22.7181 119.196 22.9367 118.909 23.2152C118.623 23.4936 118.403 23.8258 118.263 24.1899C118.122 24.554 118.066 24.9419 118.096 25.328C118.069 25.7125 118.128 26.0982 118.269 26.4599C118.411 26.8215 118.632 27.1512 118.918 27.4275C119.204 27.7037 119.548 27.9204 119.929 28.0635C120.31 28.2065 120.719 28.2727 121.129 28.2578C121.54 28.2756 121.951 28.2116 122.335 28.0698C122.718 27.928 123.065 27.7118 123.354 27.4352C123.642 27.1586 123.865 26.8279 124.008 26.4648C124.151 26.1017 124.21 25.7143 124.183 25.328Z" fill="black"/>
<path d="M138.556 19.067V23.0804C138.107 22.9632 137.635 22.9448 137.177 23.0267C136.72 23.1086 136.288 23.2885 135.916 23.5525C135.544 23.8164 135.242 24.1574 135.033 24.5488C134.824 24.9403 134.714 25.3716 134.712 25.8095V31.2478H130.867V19.2074H134.712V21.3346C135.016 20.624 135.552 20.022 136.242 19.6148C136.933 19.2075 137.743 19.0158 138.556 19.067Z" fill="black"/>
<path d="M147.355 15.4349C147.361 15.1829 147.471 14.943 147.663 14.7667C147.854 14.5903 148.112 14.4916 148.38 14.4917C148.514 14.489 148.647 14.5115 148.771 14.5577C148.895 14.6039 149.008 14.6729 149.104 14.7607C149.199 14.8486 149.275 14.9534 149.327 15.0692C149.379 15.185 149.405 15.3093 149.405 15.4349C149.405 15.5614 149.379 15.6866 149.327 15.8035C149.276 15.9203 149.2 16.0265 149.105 16.116C149.01 16.2054 148.897 16.2763 148.772 16.3247C148.648 16.3732 148.515 16.3981 148.38 16.3981C148.11 16.3929 147.852 16.2898 147.661 16.1103C147.47 15.9307 147.36 15.6887 147.355 15.4349ZM147.74 19.3078H149.021V31.3482H147.74V19.3078Z" fill="black"/>
<path d="M163.8 23.9433V31.4284H162.497V23.9433C162.551 23.4615 162.493 22.9743 162.325 22.5162C162.157 22.058 161.885 21.6401 161.526 21.2918C161.168 20.9435 160.732 20.6734 160.25 20.5004C159.769 20.3275 159.252 20.256 158.738 20.2911C156.218 20.2911 154.253 21.8363 154.253 25.0872V31.4284H152.972V19.3881H154.253V21.6757C154.665 20.8723 155.321 20.2015 156.138 19.748C156.956 19.2944 157.897 19.0784 158.845 19.1272C159.521 19.0898 160.197 19.19 160.828 19.4211C161.459 19.6521 162.029 20.0086 162.5 20.466C162.97 20.9233 163.33 21.4709 163.554 22.0711C163.779 22.6713 163.862 23.3099 163.8 23.9433Z" fill="black"/>
<path d="M166.555 25.328C166.537 24.4952 166.7 23.6677 167.032 22.8955C167.364 22.1233 167.86 21.4225 168.489 20.8354C169.118 20.2483 169.866 19.787 170.69 19.4796C171.514 19.1722 172.396 19.025 173.282 19.0469C174.43 18.9994 175.569 19.2637 176.561 19.8082C177.553 20.3527 178.358 21.1544 178.878 22.1172L177.831 22.6992C177.408 21.9163 176.754 21.264 175.948 20.8194C175.141 20.3748 174.216 20.1567 173.282 20.1908C172.564 20.1826 171.851 20.3102 171.186 20.5659C170.521 20.8217 169.918 21.2004 169.412 21.6796C168.906 22.1589 168.508 22.7288 168.241 23.3555C167.974 23.9823 167.843 24.653 167.858 25.328C167.846 26.0013 167.979 26.6698 168.247 27.2942C168.515 27.9186 168.914 28.4861 169.42 28.9632C169.925 29.4403 170.528 29.8173 171.191 30.0718C171.855 30.3263 172.566 30.4532 173.282 30.4451C174.223 30.4715 175.154 30.2508 175.969 29.8077C176.784 29.3645 177.451 28.7166 177.896 27.9367L178.985 28.5388C178.418 29.4867 177.588 30.2726 176.584 30.8132C175.58 31.3538 174.439 31.6288 173.282 31.609C172.396 31.6309 171.514 31.4837 170.69 31.1763C169.866 30.8689 169.118 30.4077 168.489 29.8206C167.86 29.2335 167.364 28.5326 167.032 27.7605C166.7 26.9883 166.537 26.1608 166.555 25.328Z" fill="black"/>
</g>
<defs>
<clipPath id="clip0_210_16">
<rect width="122.546" height="17.9" fill="white" transform="translate(56.4385 13.7692)"/>
</clipPath>
</defs>
</svg>
